<?xml version="1.0" standalone="no"?>
<!DOCTYPE svg PUBLIC "-//W3C//DTD SVG 20010904//EN"
 "http://www.w3.org/TR/2001/REC-SVG-20010904/DTD/svg10.dtd">
<svg version="1.0" xmlns="http://www.w3.org/2000/svg"
 width="300.000000pt" height="301.000000pt" viewBox="0 0 300.000000 301.000000"
 preserveAspectRatio="xMidYMid meet">
<metadata>
Created by potrace 1.10, written by Peter Selinger 2001-2011
</metadata>
<g transform="translate(0.000000,301.000000) scale(0.100000,-0.100000)"
fill="#000000" stroke="none">
<path d="M605 1936 c-72 -32 -118 -103 -119 -184 -1 -47 3 -57 28 -78 23 -20
37 -24 74 -22 47 3 74 28 29 28 -82 0 -74 150 12 207 33 22 83 29 127 17 20
-5 18 -13 -46 -197 -69 -200 -99 -267 -132 -304 -28 -31 -73 -39 -103 -19 -25
16 -25 16 -25 -13 0 -37 23 -51 81 -51 84 0 131 81 235 405 l39 120 3 -50 c4
-69 41 -392 48 -421 5 -19 13 -24 40 -24 19 0 36 6 38 13 2 6 23 80 46 162 23
83 56 177 74 210 56 107 136 166 175 131 13 -12 20 -13 29 -4 32 32 -6 68 -71
68 -40 0 -53 -5 -87 -37 -52 -46 -109 -163 -152 -310 -17 -62 -33 -111 -35
-110 -1 2 -12 88 -23 193 -31 289 -20 259 -94 272 -82 15 -153 15 -191 -2z
m300 -513 c-5 -21 -8 -24 -16 -12 -5 7 -9 27 -9 42 0 26 1 27 16 12 11 -11 14
-24 9 -42z"/>
<path d="M2030 1680 c0 -16 5 -30 11 -30 6 0 8 -9 4 -20 -11 -34 14 -23 32 14
20 42 12 66 -22 66 -21 0 -25 -5 -25 -30z"/>
<path d="M1155 1645 c-72 -25 -145 -133 -145 -215 0 -85 104 -108 162 -36 17
21 18 21 18 1 0 -62 98 -57 146 7 15 21 16 21 11 3 -2 -11 -8 -28 -12 -37 -6
-15 -2 -18 29 -18 31 0 36 4 42 28 13 54 75 171 105 196 34 29 69 34 69 11 0
-9 -13 -45 -30 -82 -48 -105 -39 -153 28 -153 26 0 43 9 69 35 41 41 43 41 43
16 0 -27 37 -51 77 -51 22 0 44 10 68 31 19 17 33 25 30 16 -10 -25 24 -50 61
-44 42 7 83 37 84 60 0 17 -2 17 -26 -2 -32 -25 -64 -27 -64 -5 0 9 18 61 40
115 22 55 40 106 40 114 0 20 -49 20 -57 0 -5 -14 -8 -14 -22 -2 -26 23 -47
26 -85 16 -46 -13 -103 -69 -129 -128 -24 -56 -50 -90 -85 -113 -51 -33 -51
-12 0 106 33 76 32 107 -6 131 -21 14 -28 14 -65 -1 -23 -9 -51 -28 -63 -43
-16 -19 -19 -21 -13 -6 15 40 11 50 -23 53 -36 4 -34 6 -53 -86 -10 -54 -20
-72 -62 -118 -89 -97 -112 -64 -53 78 51 126 52 128 22 128 -14 0 -29 -7 -34
-16 -8 -15 -11 -15 -31 5 -24 24 -32 25 -86 6z m73 -58 c8 -71 -87 -215 -126
-191 -27 18 -27 76 2 132 44 88 117 122 124 59z m677 13 c15 -47 -59 -190
-105 -205 -52 -17 -64 40 -25 123 41 88 114 134 130 82z"/>
<path d="M2153 1650 c-12 -5 -29 -20 -39 -34 -21 -33 -13 -66 32 -127 19 -26
34 -55 34 -66 0 -41 -48 -57 -86 -28 -15 12 -16 16 -6 24 18 11 11 45 -9 49
-21 4 -49 -24 -49 -48 0 -34 33 -62 83 -67 63 -7 106 11 124 54 12 30 12 38
-2 67 -9 18 -31 48 -50 66 -40 38 -44 64 -15 80 34 18 60 3 60 -35 0 -28 3
-32 20 -28 43 11 32 75 -16 93 -30 12 -52 12 -81 0z"/>
<path d="M995 1237 c-45 -21 -67 -51 -72 -100 -11 -99 69 -159 181 -135 41 8
44 12 48 44 5 45 -7 53 -26 16 -26 -51 -73 -56 -117 -13 -23 24 -29 38 -29 74
0 63 29 97 81 97 34 0 43 -5 57 -30 9 -16 20 -30 25 -30 11 0 8 68 -3 75 -23
14 -116 15 -145 2z"/>
<path d="M1315 1238 c-54 -149 -77 -205 -90 -214 -25 -18 -18 -24 30 -24 25 0
45 5 45 10 0 6 -7 10 -16 10 -12 0 -15 6 -10 23 3 12 6 25 6 30 0 4 20 7 45 7
40 0 45 -3 51 -27 5 -17 3 -28 -4 -31 -30 -10 -7 -22 43 -22 30 0 55 5 55 10
0 6 -6 10 -13 10 -9 0 -31 46 -57 115 -34 92 -46 115 -61 115 -11 0 -22 -6
-24 -12z m18 -136 c-35 -5 -38 2 -23 50 l12 43 18 -45 18 -45 -25 -3z"/>
<path d="M1520 1235 c0 -8 7 -15 15 -15 12 0 15 -18 15 -100 0 -82 -3 -100
-15 -100 -8 0 -15 -4 -15 -10 0 -5 25 -10 55 -10 30 0 55 5 55 10 0 6 -7 10
-15 10 -11 0 -15 11 -15 38 0 21 3 41 6 44 11 12 75 -69 68 -86 -5 -14 2 -16
50 -16 31 0 56 5 56 10 0 6 -6 10 -14 10 -7 0 -37 27 -66 61 l-53 60 34 36
c19 19 44 39 57 44 36 14 16 29 -39 29 -51 0 -59 -5 -35 -24 12 -9 8 -18 -25
-56 l-39 -45 0 48 c0 35 4 47 15 47 8 0 15 7 15 15 0 12 -13 15 -55 15 -42 0
-55 -3 -55 -15z"/>
<path d="M1830 1234 c0 -8 7 -14 15 -14 12 0 15 -18 15 -100 0 -60 -4 -100
-10 -100 -5 0 -10 -4 -10 -10 0 -6 40 -10 100 -10 l100 0 0 35 c0 41 -11 45
-34 9 -14 -21 -24 -25 -54 -22 -36 3 -37 4 -40 46 -3 41 -2 42 28 42 18 0 33
-6 36 -15 12 -30 24 -14 24 30 0 25 -4 45 -10 45 -5 0 -10 -6 -10 -14 0 -13
-55 -28 -65 -18 -3 3 -5 23 -5 44 0 38 0 38 40 38 29 0 42 -5 50 -20 16 -31
30 -24 30 15 l0 35 -100 -1 c-79 0 -100 -4 -100 -15z"/>
<path d="M2136 1229 c-49 -38 -28 -94 48 -130 40 -19 54 -43 37 -63 -25 -31
-91 -7 -91 32 0 7 -7 12 -16 12 -12 0 -15 -6 -10 -22 3 -13 6 -28 6 -35 0 -16
67 -34 99 -26 38 8 71 43 71 73 0 29 -28 59 -74 81 -43 20 -56 47 -32 64 23
17 56 3 63 -26 8 -31 23 -22 23 15 0 26 -5 35 -22 40 -42 11 -75 6 -102 -15z"/>
</g>
</svg>
